<svg width="200" height="200" viewBox="0 0 200 200" xmlns="http://www.w3.org/2000/svg">
  <!-- 고양이 몸체 -->
  <ellipse cx="100" cy="130" rx="45" ry="35" fill="#FF8C42" stroke="#E67E22" stroke-width="2"/>

  <!-- 고양이 머리 -->
  <circle cx="100" cy="80" r="40" fill="#FF8C42" stroke="#E67E22" stroke-width="2"/>

  <!-- 귀 -->
  <path d="M 70 55 L 75 35 L 85 50 Z" fill="#FF8C42" stroke="#E67E22" stroke-width="2"/>
  <path d="M 115 50 L 125 35 L 130 55 Z" fill="#FF8C42" stroke="#E67E22" stroke-width="2"/>

  <!-- 귀 안쪽 -->
  <path d="M 73 50 L 76 40 L 82 48 Z" fill="#FFB366"/>
  <path d="M 118 48 L 124 40 L 127 50 Z" fill="#FFB366"/>

  <!-- 눈 -->
  <ellipse cx="88" cy="75" rx="8" ry="12" fill="#2C3E50"/>
  <ellipse cx="112" cy="75" rx="8" ry="12" fill="#2C3E50"/>

  <!-- 눈동자 -->
  <ellipse cx="88" cy="75" rx="4" ry="8" fill="#ECF0F1"/>
  <ellipse cx="112" cy="75" rx="4" ry="8" fill="#ECF0F1"/>

  <!-- 코 -->
  <path d="M 97 85 L 103 85 L 100 90 Z" fill="#E74C3C"/>

  <!-- 입 -->
  <path d="M 100 92 Q 95 97 90 95" fill="none" stroke="#2C3E50" stroke-width="2" stroke-linecap="round"/>
  <path d="M 100 92 Q 105 97 110 95" fill="none" stroke="#2C3E50" stroke-width="2" stroke-linecap="round"/>

  <!-- 수염 -->
  <line x1="65" y1="82" x2="45" y2="80" stroke="#2C3E50" stroke-width="2" stroke-linecap="round"/>
  <line x1="65" y1="88" x2="45" y2="90" stroke="#2C3E50" stroke-width="2" stroke-linecap="round"/>
  <line x1="135" y1="82" x2="155" y2="80" stroke="#2C3E50" stroke-width="2" stroke-linecap="round"/>
  <line x1="135" y1="88" x2="155" y2="90" stroke="#2C3E50" stroke-width="2" stroke-linecap="round"/>

  <!-- 앞발 -->
  <ellipse cx="75" cy="160" rx="12" ry="18" fill="#FF8C42" stroke="#E67E22" stroke-width="2"/>
  <ellipse cx="125" cy="160" rx="12" ry="18" fill="#FF8C42" stroke="#E67E22" stroke-width="2"/>

  <!-- 뒷발 -->
  <ellipse cx="85" cy="175" rx="10" ry="15" fill="#FF8C42" stroke="#E67E22" stroke-width="2"/>
  <ellipse cx="115" cy="175" rx="10" ry="15" fill="#FF8C42" stroke="#E67E22" stroke-width="2"/>

  <!-- 꼬리 -->
  <path d="M 145 125 Q 165 110 175 95 Q 180 90 175 85 Q 170 90 165 95 Q 155 105 140 120"
        fill="#FF8C42" stroke="#E67E22" stroke-width="2"/>

  <!-- 꼬리 줄무늬 -->
  <path d="M 150 115 Q 160 105 165 100" fill="none" stroke="#E67E22" stroke-width="2"/>
  <path d="M 155 110 Q 165 100 170 95" fill="none" stroke="#E67E22" stroke-width="2"/>

  <!-- 배 -->
  <ellipse cx="100" cy="135" rx="25" ry="20" fill="#FFD93D"/>
</svg>